<mxfile host="app.diagrams.net" agent="Mozilla/5.0 (Windows NT 10.0; Win64; x64) AppleWebKit/537.36 (KHTML, like Gecko) Chrome/139.0.0.0 Safari/537.36" version="28.0.7">
  <diagram name="Page-1" id="gamRS6MLA4fs2B-uqD5Q">
    <mxGraphModel grid="1" page="1" gridSize="10" guides="1" tooltips="1" connect="1" arrows="1" fold="1" pageScale="1" pageWidth="850" pageHeight="1100" math="0" shadow="0">
      <root>
        <mxCell id="0" />
        <mxCell id="1" parent="0" />
        <mxCell id="qD9gXsYjsShy9WRek7qx-5" style="edgeStyle=orthogonalEdgeStyle;rounded=0;orthogonalLoop=1;jettySize=auto;html=1;exitX=0.5;exitY=1;exitDx=0;exitDy=0;entryX=0.5;entryY=0;entryDx=0;entryDy=0;" edge="1" parent="1" source="sVo8eWBov2D_V9g_eI1e-1" target="qD9gXsYjsShy9WRek7qx-1">
          <mxGeometry relative="1" as="geometry" />
        </mxCell>
        <mxCell id="sVo8eWBov2D_V9g_eI1e-1" value="Inicio" style="rounded=1;whiteSpace=wrap;html=1;" vertex="1" parent="1">
          <mxGeometry x="321" y="70" width="80" height="30" as="geometry" />
        </mxCell>
        <mxCell id="sVo8eWBov2D_V9g_eI1e-14" value="&lt;font style=&quot;font-size: 20px;&quot;&gt;&lt;b&gt;Suma de los n primeros números naturales&lt;/b&gt;&lt;/font&gt;" style="text;html=1;align=center;verticalAlign=middle;whiteSpace=wrap;rounded=0;" vertex="1" parent="1">
          <mxGeometry x="40" y="20" width="660" height="30" as="geometry" />
        </mxCell>
        <mxCell id="I5g4T-FfKX0s-sWPSXJS-8" style="edgeStyle=orthogonalEdgeStyle;rounded=0;orthogonalLoop=1;jettySize=auto;html=1;exitX=0.5;exitY=1;exitDx=0;exitDy=0;entryX=0.5;entryY=0;entryDx=0;entryDy=0;" edge="1" parent="1" source="qD9gXsYjsShy9WRek7qx-1" target="I5g4T-FfKX0s-sWPSXJS-1">
          <mxGeometry relative="1" as="geometry" />
        </mxCell>
        <mxCell id="qD9gXsYjsShy9WRek7qx-1" value="Leer n" style="rounded=0;whiteSpace=wrap;html=1;" vertex="1" parent="1">
          <mxGeometry x="320" y="127" width="80" height="40" as="geometry" />
        </mxCell>
        <mxCell id="fhB60b2QltupWCeUgBXA-5" value="Fin" style="rounded=1;whiteSpace=wrap;html=1;" vertex="1" parent="1">
          <mxGeometry x="531" y="600" width="80" height="30" as="geometry" />
        </mxCell>
        <mxCell id="3A96XzFDcWaCMQ-mL7pO-3" style="edgeStyle=orthogonalEdgeStyle;rounded=0;orthogonalLoop=1;jettySize=auto;html=1;exitX=0.5;exitY=1;exitDx=0;exitDy=0;entryX=0.5;entryY=0;entryDx=0;entryDy=0;" edge="1" parent="1" source="I5g4T-FfKX0s-sWPSXJS-1" target="3A96XzFDcWaCMQ-mL7pO-2">
          <mxGeometry relative="1" as="geometry" />
        </mxCell>
        <mxCell id="I5g4T-FfKX0s-sWPSXJS-1" value="suma = 0" style="rounded=0;whiteSpace=wrap;html=1;" vertex="1" parent="1">
          <mxGeometry x="300" y="202" width="120" height="40" as="geometry" />
        </mxCell>
        <mxCell id="eM27uRVBK2D_l_hHfrWk-7" style="edgeStyle=orthogonalEdgeStyle;rounded=0;orthogonalLoop=1;jettySize=auto;html=1;exitX=0.5;exitY=1;exitDx=0;exitDy=0;entryX=0.5;entryY=0;entryDx=0;entryDy=0;" edge="1" parent="1" source="eM27uRVBK2D_l_hHfrWk-3" target="fhB60b2QltupWCeUgBXA-5">
          <mxGeometry relative="1" as="geometry" />
        </mxCell>
        <mxCell id="eM27uRVBK2D_l_hHfrWk-3" value="Presentar suma" style="rounded=0;whiteSpace=wrap;html=1;" vertex="1" parent="1">
          <mxGeometry x="509" y="510" width="125" height="40" as="geometry" />
        </mxCell>
        <mxCell id="3A96XzFDcWaCMQ-mL7pO-5" style="edgeStyle=orthogonalEdgeStyle;rounded=0;orthogonalLoop=1;jettySize=auto;html=1;exitX=0.5;exitY=1;exitDx=0;exitDy=0;entryX=0.5;entryY=0;entryDx=0;entryDy=0;" edge="1" parent="1" source="3A96XzFDcWaCMQ-mL7pO-2" target="3A96XzFDcWaCMQ-mL7pO-4">
          <mxGeometry relative="1" as="geometry" />
        </mxCell>
        <mxCell id="3A96XzFDcWaCMQ-mL7pO-2" value="contador = 0" style="rounded=0;whiteSpace=wrap;html=1;" vertex="1" parent="1">
          <mxGeometry x="300" y="276" width="120" height="40" as="geometry" />
        </mxCell>
        <mxCell id="3A96XzFDcWaCMQ-mL7pO-8" style="edgeStyle=orthogonalEdgeStyle;rounded=0;orthogonalLoop=1;jettySize=auto;html=1;exitX=0.5;exitY=1;exitDx=0;exitDy=0;entryX=0.5;entryY=0;entryDx=0;entryDy=0;" edge="1" parent="1" source="3A96XzFDcWaCMQ-mL7pO-4" target="3A96XzFDcWaCMQ-mL7pO-7">
          <mxGeometry relative="1" as="geometry" />
        </mxCell>
        <mxCell id="3A96XzFDcWaCMQ-mL7pO-11" style="edgeStyle=orthogonalEdgeStyle;rounded=0;orthogonalLoop=1;jettySize=auto;html=1;exitX=1;exitY=0.5;exitDx=0;exitDy=0;entryX=0.5;entryY=0;entryDx=0;entryDy=0;" edge="1" parent="1" source="3A96XzFDcWaCMQ-mL7pO-4" target="eM27uRVBK2D_l_hHfrWk-3">
          <mxGeometry relative="1" as="geometry" />
        </mxCell>
        <mxCell id="3A96XzFDcWaCMQ-mL7pO-4" value="¿contador = n?&amp;nbsp;" style="rhombus;whiteSpace=wrap;html=1;" vertex="1" parent="1">
          <mxGeometry x="300" y="370" width="120" height="80" as="geometry" />
        </mxCell>
        <mxCell id="3A96XzFDcWaCMQ-mL7pO-12" style="edgeStyle=orthogonalEdgeStyle;rounded=0;orthogonalLoop=1;jettySize=auto;html=1;exitX=0.5;exitY=1;exitDx=0;exitDy=0;" edge="1" parent="1" source="3A96XzFDcWaCMQ-mL7pO-6">
          <mxGeometry relative="1" as="geometry">
            <mxPoint x="360" y="340" as="targetPoint" />
            <Array as="points">
              <mxPoint x="360" y="660" />
              <mxPoint x="210" y="660" />
              <mxPoint x="210" y="340" />
            </Array>
          </mxGeometry>
        </mxCell>
        <mxCell id="3A96XzFDcWaCMQ-mL7pO-6" value="suma = suma + contador" style="rounded=0;whiteSpace=wrap;html=1;" vertex="1" parent="1">
          <mxGeometry x="270" y="600" width="180" height="40" as="geometry" />
        </mxCell>
        <mxCell id="3A96XzFDcWaCMQ-mL7pO-9" style="edgeStyle=orthogonalEdgeStyle;rounded=0;orthogonalLoop=1;jettySize=auto;html=1;exitX=0.5;exitY=1;exitDx=0;exitDy=0;entryX=0.5;entryY=0;entryDx=0;entryDy=0;" edge="1" parent="1" source="3A96XzFDcWaCMQ-mL7pO-7" target="3A96XzFDcWaCMQ-mL7pO-6">
          <mxGeometry relative="1" as="geometry" />
        </mxCell>
        <mxCell id="3A96XzFDcWaCMQ-mL7pO-7" value="Incrementar contador en 1" style="rounded=0;whiteSpace=wrap;html=1;" vertex="1" parent="1">
          <mxGeometry x="270" y="500" width="180" height="40" as="geometry" />
        </mxCell>
        <mxCell id="3A96XzFDcWaCMQ-mL7pO-13" value="No" style="text;html=1;align=center;verticalAlign=middle;resizable=0;points=[];autosize=1;strokeColor=none;fillColor=none;" vertex="1" parent="1">
          <mxGeometry x="360" y="450" width="40" height="30" as="geometry" />
        </mxCell>
        <mxCell id="3A96XzFDcWaCMQ-mL7pO-14" value="Si" style="text;html=1;align=center;verticalAlign=middle;resizable=0;points=[];autosize=1;strokeColor=none;fillColor=none;" vertex="1" parent="1">
          <mxGeometry x="410" y="380" width="30" height="30" as="geometry" />
        </mxCell>
      </root>
    </mxGraphModel>
  </diagram>
</mxfile>
